<mxfile host="app.diagrams.net" modified="2024-03-07T11:07:58.847Z" agent="Mozilla/5.0 (Macintosh; Intel Mac OS X 10_15_7) AppleWebKit/537.36 (KHTML, like Gecko) Chrome/122.0.0.0 Safari/537.36" etag="POKvZwRbkXrc27nZdXDT" version="24.0.2" type="github">
  <diagram name="Page-1" id="8M24d0M_bvwB77iMiEa7">
    <mxGraphModel dx="2074" dy="1121" grid="1" gridSize="10" guides="1" tooltips="1" connect="1" arrows="1" fold="1" page="1" pageScale="1" pageWidth="827" pageHeight="1169" math="0" shadow="0">
      <root>
        <mxCell id="0" />
        <mxCell id="1" parent="0" />
        <mxCell id="j92I9vUUT_4088bm_M4z-5" style="edgeStyle=orthogonalEdgeStyle;rounded=0;orthogonalLoop=1;jettySize=auto;html=1;entryX=0;entryY=0.5;entryDx=0;entryDy=0;" parent="1" source="j92I9vUUT_4088bm_M4z-1" target="j92I9vUUT_4088bm_M4z-3" edge="1">
          <mxGeometry relative="1" as="geometry" />
        </mxCell>
        <mxCell id="j92I9vUUT_4088bm_M4z-7" value="Projekt Initialisierung" style="edgeLabel;html=1;align=center;verticalAlign=middle;resizable=0;points=[];" parent="j92I9vUUT_4088bm_M4z-5" vertex="1" connectable="0">
          <mxGeometry x="0.15" y="-1" relative="1" as="geometry">
            <mxPoint as="offset" />
          </mxGeometry>
        </mxCell>
        <mxCell id="j92I9vUUT_4088bm_M4z-1" value="Terraform" style="rounded=0;whiteSpace=wrap;html=1;" parent="1" vertex="1">
          <mxGeometry x="120" y="210" width="120" height="60" as="geometry" />
        </mxCell>
        <mxCell id="WAXT94o-7qJCP6YvnNjg-10" style="edgeStyle=orthogonalEdgeStyle;rounded=0;orthogonalLoop=1;jettySize=auto;html=1;" edge="1" parent="1" source="j92I9vUUT_4088bm_M4z-2" target="WAXT94o-7qJCP6YvnNjg-8">
          <mxGeometry relative="1" as="geometry" />
        </mxCell>
        <mxCell id="j92I9vUUT_4088bm_M4z-2" value="Firebase&lt;div&gt;(Hosting)&lt;/div&gt;" style="rounded=0;whiteSpace=wrap;html=1;" parent="1" vertex="1">
          <mxGeometry x="520" y="380" width="120" height="60" as="geometry" />
        </mxCell>
        <mxCell id="j92I9vUUT_4088bm_M4z-4" style="edgeStyle=orthogonalEdgeStyle;rounded=0;orthogonalLoop=1;jettySize=auto;html=1;exitX=0.5;exitY=1;exitDx=0;exitDy=0;entryX=0.5;entryY=0;entryDx=0;entryDy=0;" parent="1" source="j92I9vUUT_4088bm_M4z-3" target="j92I9vUUT_4088bm_M4z-2" edge="1">
          <mxGeometry relative="1" as="geometry">
            <mxPoint x="450" y="310" as="targetPoint" />
          </mxGeometry>
        </mxCell>
        <mxCell id="j92I9vUUT_4088bm_M4z-10" value="Legt Projekt an" style="edgeLabel;html=1;align=center;verticalAlign=middle;resizable=0;points=[];" parent="j92I9vUUT_4088bm_M4z-4" vertex="1" connectable="0">
          <mxGeometry x="-0.3091" relative="1" as="geometry">
            <mxPoint as="offset" />
          </mxGeometry>
        </mxCell>
        <mxCell id="j92I9vUUT_4088bm_M4z-14" style="edgeStyle=orthogonalEdgeStyle;rounded=0;orthogonalLoop=1;jettySize=auto;html=1;entryX=1;entryY=0.5;entryDx=0;entryDy=0;" parent="1" source="j92I9vUUT_4088bm_M4z-3" target="j92I9vUUT_4088bm_M4z-11" edge="1">
          <mxGeometry relative="1" as="geometry">
            <Array as="points">
              <mxPoint x="580" y="100" />
            </Array>
          </mxGeometry>
        </mxCell>
        <mxCell id="j92I9vUUT_4088bm_M4z-3" value="Google Cloud" style="rounded=0;whiteSpace=wrap;html=1;" parent="1" vertex="1">
          <mxGeometry x="520" y="210" width="120" height="60" as="geometry" />
        </mxCell>
        <mxCell id="j92I9vUUT_4088bm_M4z-8" style="edgeStyle=orthogonalEdgeStyle;rounded=0;orthogonalLoop=1;jettySize=auto;html=1;entryX=0;entryY=0.5;entryDx=0;entryDy=0;" parent="1" source="j92I9vUUT_4088bm_M4z-6" target="j92I9vUUT_4088bm_M4z-2" edge="1">
          <mxGeometry relative="1" as="geometry" />
        </mxCell>
        <mxCell id="j92I9vUUT_4088bm_M4z-9" value="Deployment via firebase-cli" style="edgeLabel;html=1;align=center;verticalAlign=middle;resizable=0;points=[];" parent="j92I9vUUT_4088bm_M4z-8" vertex="1" connectable="0">
          <mxGeometry x="-0.0786" y="-2" relative="1" as="geometry">
            <mxPoint as="offset" />
          </mxGeometry>
        </mxCell>
        <mxCell id="j92I9vUUT_4088bm_M4z-6" value="npm Projekt" style="rounded=0;whiteSpace=wrap;html=1;" parent="1" vertex="1">
          <mxGeometry x="120" y="380" width="120" height="60" as="geometry" />
        </mxCell>
        <mxCell id="j92I9vUUT_4088bm_M4z-12" style="edgeStyle=orthogonalEdgeStyle;rounded=0;orthogonalLoop=1;jettySize=auto;html=1;entryX=0.5;entryY=0;entryDx=0;entryDy=0;" parent="1" source="j92I9vUUT_4088bm_M4z-11" target="j92I9vUUT_4088bm_M4z-1" edge="1">
          <mxGeometry relative="1" as="geometry" />
        </mxCell>
        <mxCell id="j92I9vUUT_4088bm_M4z-13" value="Authentifizierung" style="edgeLabel;html=1;align=center;verticalAlign=middle;resizable=0;points=[];" parent="j92I9vUUT_4088bm_M4z-12" vertex="1" connectable="0">
          <mxGeometry x="0.1" y="2" relative="1" as="geometry">
            <mxPoint as="offset" />
          </mxGeometry>
        </mxCell>
        <mxCell id="j92I9vUUT_4088bm_M4z-11" value="Google Cloud CLI" style="rounded=0;whiteSpace=wrap;html=1;" parent="1" vertex="1">
          <mxGeometry x="120" y="70" width="120" height="60" as="geometry" />
        </mxCell>
        <mxCell id="WAXT94o-7qJCP6YvnNjg-3" value="1" style="ellipse;whiteSpace=wrap;html=1;" vertex="1" parent="1">
          <mxGeometry x="110" y="60" width="20" height="20" as="geometry" />
        </mxCell>
        <mxCell id="WAXT94o-7qJCP6YvnNjg-4" value="2" style="ellipse;whiteSpace=wrap;html=1;" vertex="1" parent="1">
          <mxGeometry x="110" y="200" width="20" height="20" as="geometry" />
        </mxCell>
        <mxCell id="WAXT94o-7qJCP6YvnNjg-5" value="3" style="ellipse;whiteSpace=wrap;html=1;" vertex="1" parent="1">
          <mxGeometry x="510" y="200" width="20" height="20" as="geometry" />
        </mxCell>
        <mxCell id="WAXT94o-7qJCP6YvnNjg-6" value="4" style="ellipse;whiteSpace=wrap;html=1;" vertex="1" parent="1">
          <mxGeometry x="510" y="370" width="20" height="20" as="geometry" />
        </mxCell>
        <mxCell id="WAXT94o-7qJCP6YvnNjg-7" value="5" style="ellipse;whiteSpace=wrap;html=1;" vertex="1" parent="1">
          <mxGeometry x="230" y="370" width="20" height="20" as="geometry" />
        </mxCell>
        <mxCell id="WAXT94o-7qJCP6YvnNjg-8" value="Website verfÃ¼gbar" style="rounded=0;whiteSpace=wrap;html=1;" vertex="1" parent="1">
          <mxGeometry x="520" y="540" width="120" height="60" as="geometry" />
        </mxCell>
        <mxCell id="WAXT94o-7qJCP6YvnNjg-9" style="edgeStyle=orthogonalEdgeStyle;rounded=0;orthogonalLoop=1;jettySize=auto;html=1;exitX=0.5;exitY=1;exitDx=0;exitDy=0;entryX=0.5;entryY=0.833;entryDx=0;entryDy=0;entryPerimeter=0;" edge="1" parent="1" source="j92I9vUUT_4088bm_M4z-2" target="j92I9vUUT_4088bm_M4z-2">
          <mxGeometry relative="1" as="geometry" />
        </mxCell>
      </root>
    </mxGraphModel>
  </diagram>
</mxfile>
